<?xml version="1.0" standalone="no"?>
<!DOCTYPE svg PUBLIC "-//W3C//DTD SVG 20010904//EN"
 "http://www.w3.org/TR/2001/REC-SVG-20010904/DTD/svg10.dtd">
<svg version="1.0" xmlns="http://www.w3.org/2000/svg"
 width="700.000000pt" height="700.000000pt" viewBox="0 0 700.000000 700.000000"
 preserveAspectRatio="xMidYMid meet">
<metadata>
Created by potrace 1.11, written by Peter Selinger 2001-2013
</metadata>
<g transform="translate(0.000000,700.000000) scale(0.100000,-0.100000)"
fill="#000000" stroke="none">
<path d="M3360 6994 c-445 -23 -851 -115 -1235 -279 -824 -352 -1488 -1016
-1840 -1840 -137 -322 -230 -684 -266 -1040 -15 -154 -15 -516 0 -670 83 -820
431 -1556 1011 -2135 579 -580 1315 -928 2135 -1011 154 -15 516 -15 670 0
820 83 1556 431 2135 1011 580 579 928 1315 1011 2135 15 154 15 516 0 670
-83 820 -431 1556 -1011 2135 -324 325 -682 568 -1095 745 -320 136 -698 233
-1035 264 -124 12 -387 20 -480 15z m-1132 -516 c7 -7 12 -22 12 -34 0 -19
-23 -35 -147 -97 -610 -305 -1069 -752 -1407 -1369 -29 -54 -42 -68 -60 -68
-13 0 -29 6 -36 14 -14 18 7 69 77 191 334 575 823 1033 1407 1316 66 32 126
59 132 59 5 0 15 -5 22 -12z m-24 -220 c18 -29 -2 -47 -110 -106 -491 -266
-872 -626 -1163 -1100 -67 -108 -85 -127 -114 -111 -29 17 -19 51 43 153 290
476 688 855 1179 1123 119 64 146 71 165 41z m106 -112 c29 -36 9 -56 -130
-130 -254 -136 -438 -269 -635 -458 -203 -195 -327 -347 -470 -577 -78 -125
-95 -142 -122 -125 -31 19 -26 41 28 131 238 399 577 747 969 994 92 58 318
178 336 179 6 0 17 -7 24 -14z m-30 -205 c17 -32 2 -48 -94 -103 -430 -244
-780 -594 -1025 -1025 -53 -93 -63 -103 -94 -95 -37 9 -30 45 29 148 249 433
595 779 1044 1042 93 55 124 62 140 33z m130 -95 c28 -35 8 -58 -100 -116
-409 -221 -739 -535 -980 -932 -53 -88 -79 -110 -105 -88 -25 21 -17 47 42
143 210 339 485 623 808 834 86 57 296 173 311 173 6 0 17 -7 24 -14z m-81
-235 c30 -19 3 -57 -71 -102 -139 -84 -274 -193 -424 -343 -192 -192 -327
-373 -429 -577 -41 -80 -59 -99 -87 -91 -49 12 -21 89 115 307 175 282 471
577 762 763 80 51 108 60 134 43z m179 -132 c4 -31 -10 -43 -131 -113 -264
-151 -514 -392 -700 -674 -71 -107 -84 -123 -106 -120 -47 6 -48 30 -3 106
175 294 468 584 777 767 121 72 158 80 163 34z m132 -114 c6 -8 10 -22 8 -32
-3 -19 -6 -21 -168 -116 -245 -145 -456 -341 -632 -590 -49 -68 -74 -81 -98
-52 -19 23 -6 53 73 158 188 251 407 442 684 597 95 53 114 58 133 35z m-2
-197 c23 -23 12 -47 -30 -74 -136 -85 -191 -123 -258 -178 -134 -108 -266
-252 -360 -391 -47 -70 -64 -79 -94 -49 -21 21 -8 52 74 161 133 181 352 381
536 491 91 54 112 60 132 40z m77 -163 c0 -24 -12 -35 -95 -87 -223 -141 -410
-328 -542 -544 -59 -97 -75 -110 -107 -88 -28 20 -23 35 41 139 140 225 343
427 575 570 96 59 128 62 128 10z m199 -88 c15 -23 -7 -43 -94 -87 -204 -103
-411 -282 -540 -469 -70 -101 -95 -131 -109 -131 -14 0 -41 30 -41 45 0 8 27
53 59 102 151 224 340 393 593 528 84 45 110 47 132 12z m-26 -159 c7 -7 12
-22 12 -35 0 -17 -16 -32 -70 -63 -183 -107 -335 -252 -450 -429 -85 -132 -93
-141 -119 -134 -46 12 -37 48 47 178 109 170 283 339 458 443 93 55 103 59
122 40z m799 -63 c803 -130 1253 -988 902 -1720 -258 -539 -881 -809 -1450
-629 -705 223 -1047 1013 -728 1679 229 478 756 754 1276 670z m1127 -1708 c9
-14 1 -37 -42 -121 -128 -252 -326 -463 -556 -595 -92 -52 -98 -54 -120 -38
-33 24 -14 58 51 94 232 127 447 355 559 590 20 43 42 81 48 86 17 11 48 4 60
-16z m88 -197 c-7 -60 -161 -278 -284 -402 -86 -87 -231 -201 -305 -240 -48
-25 -75 -19 -81 20 -3 16 19 36 105 94 174 118 356 311 445 472 18 32 43 70
56 83 21 23 25 24 45 10 13 -9 21 -24 19 -37z m177 -8 c13 -24 -23 -102 -101
-222 -119 -185 -291 -365 -469 -493 -103 -73 -131 -86 -155 -66 -30 24 -11 52
78 114 232 162 419 367 533 588 21 39 42 78 48 85 14 18 55 15 66 -6z m689
-114 c20 -20 14 -50 -28 -147 -179 -412 -499 -797 -870 -1044 -87 -59 -107
-66 -128 -45 -26 26 -11 48 65 100 392 270 691 628 864 1038 43 104 67 128 97
98z m-588 -28 c12 -23 -5 -62 -77 -175 -125 -195 -338 -412 -532 -544 -64 -44
-91 -50 -111 -26 -20 24 -3 50 58 90 213 142 425 367 554 588 22 40 46 75 52
79 20 14 45 8 56 -12z m888 -136 c2 -20 -14 -68 -47 -140 -213 -471 -558 -878
-984 -1162 -197 -132 -245 -151 -271 -110 -14 23 10 48 83 89 245 138 551 399
735 629 147 184 296 430 381 630 38 90 48 102 80 98 14 -2 21 -12 23 -34z
m-560 -22 c4 -25 -49 -124 -129 -242 -169 -248 -381 -459 -630 -626 -101 -67
-132 -77 -149 -44 -15 28 1 48 68 89 261 160 542 449 699 718 74 127 89 144
116 134 12 -5 23 -18 25 -29z m388 4 c7 -19 -72 -185 -152 -318 -240 -400
-567 -718 -971 -947 -96 -54 -118 -59 -137 -29 -18 29 2 48 115 113 452 261
782 612 1019 1085 33 65 65 120 72 123 16 6 48 -10 54 -27z m-617 -24 c14 -25
-16 -79 -113 -210 -158 -211 -397 -424 -617 -550 -96 -55 -114 -59 -133 -29
-17 27 1 46 103 107 254 152 486 374 651 620 24 36 48 68 54 72 19 13 45 8 55
-10z m875 -155 c25 -39 -187 -404 -364 -627 -98 -124 -340 -368 -460 -464
-129 -103 -330 -234 -472 -306 -104 -53 -131 -63 -145 -54 -10 6 -18 22 -18
35 0 20 18 33 120 88 523 278 934 690 1206 1207 28 55 58 109 66 122 16 27 50
26 67 -1z m333 -92 c6 -16 -84 -208 -154 -330 -330 -569 -818 -1027 -1403
-1315 -68 -33 -128 -60 -135 -60 -20 0 -46 36 -39 54 3 9 72 49 153 89 632
317 1121 806 1437 1437 41 82 80 150 87 153 16 6 47 -11 54 -28z m-209 -33 c6
-38 -128 -278 -261 -466 -280 -396 -688 -750 -1105 -960 -88 -44 -117 -44
-117 -1 0 27 8 34 75 72 328 182 499 306 729 528 212 205 393 445 541 716 34
63 69 122 77 131 19 21 57 9 61 -20z"/>
<path d="M3439 3603 c-78 -48 -77 -160 1 -207 56 -32 130 -12 164 44 61 104
-63 226 -165 163z"/>
</g>
</svg>
